<?xml version="1.0" encoding="UTF-8" standalone="no"?>
<!DOCTYPE svg PUBLIC "-//W3C//DTD SVG 1.1//EN"
 "http://www.w3.org/Graphics/SVG/1.1/DTD/svg11.dtd">
<!-- Generated by graphviz version 2.43.0 (0)
 -->
<!-- Title: G Pages: 1 -->
<svg width="1565pt" height="719pt"
 viewBox="0.00 0.00 1564.69 719.43" xmlns="http://www.w3.org/2000/svg" xmlns:xlink="http://www.w3.org/1999/xlink">
<g id="graph0" class="graph" transform="scale(1 1) rotate(0) translate(4 715.43)">
<title>G</title>
<polygon fill="white" stroke="transparent" points="-4,4 -4,-715.43 1560.69,-715.43 1560.69,4 -4,4"/>
<g id="clust1" class="cluster">
<title>cluster_Mod_0</title>
<polygon fill="none" stroke="chartreuse" stroke-width="2" points="18.5,-514.21 18.5,-661.21 1548.69,-661.21 1548.69,-514.21 18.5,-514.21"/>
</g>
<g id="clust2" class="cluster">
<title>cluster_0</title>
<polygon fill="none" stroke="black" stroke-width="2" points="26.5,-522.21 26.5,-653.21 1540.69,-653.21 1540.69,-522.21 26.5,-522.21"/>
<text text-anchor="middle" x="783.59" y="-638.01" font-family="Helvetica,Arial,sans-serif" font-size="14.00">PC #1</text>
</g>
<g id="clust3" class="cluster">
<title>cluster_Mod_1</title>
<polygon fill="none" stroke="chocolate" stroke-width="2" points="8,-50.21 8,-336.21 1249.66,-336.21 1249.66,-50.21 8,-50.21"/>
</g>
<g id="clust4" class="cluster">
<title>cluster_1</title>
<polygon fill="none" stroke="black" stroke-width="2" points="24.5,-197.21 24.5,-328.21 1241.66,-328.21 1241.66,-197.21 24.5,-197.21"/>
<text text-anchor="middle" x="633.08" y="-313.01" font-family="Helvetica,Arial,sans-serif" font-size="14.00">PC #2</text>
</g>
<g id="clust5" class="cluster">
<title>cluster_2</title>
<polygon fill="none" stroke="black" stroke-width="2" points="16,-58.21 16,-189.21 475.28,-189.21 475.28,-58.21 16,-58.21"/>
<text text-anchor="middle" x="245.64" y="-174.01" font-family="Helvetica,Arial,sans-serif" font-size="14.00">PC #3</text>
</g>
<!-- node0 -->
<g id="node1" class="node">
<title>node0</title>
<polygon fill="#5cacee" stroke="#5cacee" points="34.5,-531.21 34.5,-621.21 170.5,-621.21 170.5,-531.21 34.5,-531.21"/>
<text text-anchor="middle" x="102.5" y="-601.21" font-family="Helvetica,Arial,sans-serif" font-size="20.00">Start Time : 0</text>
<polyline fill="none" stroke="#5cacee" points="34.5,-591.21 170.5,-591.21 "/>
<text text-anchor="middle" x="102.5" y="-571.21" font-family="Helvetica,Arial,sans-serif" font-size="20.00">End Time : 5</text>
<polyline fill="none" stroke="#5cacee" points="34.5,-561.21 170.5,-561.21 "/>
<text text-anchor="middle" x="102.5" y="-541.21" font-family="Helvetica,Arial,sans-serif" font-size="20.00">Duration : 5</text>
</g>
<!-- node4 -->
<g id="node2" class="node">
<title>node4</title>
<polygon fill="aquamarine" stroke="aquamarine" points="323.78,-531.21 323.78,-621.21 463.78,-621.21 463.78,-531.21 323.78,-531.21"/>
<text text-anchor="middle" x="393.78" y="-601.21" font-family="Helvetica,Arial,sans-serif" font-size="20.00">Start Time : 5</text>
<polyline fill="none" stroke="aquamarine" points="323.78,-591.21 463.78,-591.21 "/>
<text text-anchor="middle" x="393.78" y="-571.21" font-family="Helvetica,Arial,sans-serif" font-size="20.00">End Time : 12</text>
<polyline fill="none" stroke="aquamarine" points="323.78,-561.21 463.78,-561.21 "/>
<text text-anchor="middle" x="393.78" y="-541.21" font-family="Helvetica,Arial,sans-serif" font-size="20.00">Duration : 7</text>
</g>
<!-- node0&#45;&gt;node4 -->
<g id="edge1" class="edge">
<title>node0&#45;&gt;node4</title>
<path fill="none" stroke="black" d="M170.59,-576.21C213.17,-576.21 268.49,-576.21 313.27,-576.21"/>
<polygon fill="black" stroke="black" points="313.53,-579.71 323.53,-576.21 313.53,-572.71 313.53,-579.71"/>
</g>
<!-- contextMessage0 -->
<g id="node12" class="node">
<title>contextMessage0</title>
<ellipse fill="lightpink" stroke="lightpink" cx="393.78" cy="-479.21" rx="176.55" ry="21.43"/>
<text text-anchor="middle" x="393.78" y="-474.21" font-family="Helvetica,Arial,sans-serif" font-size="20.00">Dur : 15 | Band : 0.666667</text>
</g>
<!-- node0&#45;&gt;contextMessage0 -->
<g id="edge9" class="edge">
<title>node0&#45;&gt;contextMessage0</title>
<path fill="none" stroke="black" d="M170.67,-538.36C185.61,-530.94 201.59,-523.76 217,-518.21 238.01,-510.65 260.98,-504.28 283.18,-499.01"/>
<polygon fill="black" stroke="black" points="284.02,-502.41 292.98,-496.75 282.45,-495.59 284.02,-502.41"/>
</g>
<!-- message0 -->
<g id="node15" class="node">
<title>message0</title>
<ellipse fill="none" stroke="black" cx="393.78" cy="-414.21" rx="172.57" ry="21.43"/>
<text text-anchor="middle" x="393.78" y="-409.21" font-family="Helvetica,Arial,sans-serif" font-size="20.00">Dur : 4.5 | Band : 2.22222</text>
</g>
<!-- node0&#45;&gt;message0 -->
<g id="edge15" class="edge">
<title>node0&#45;&gt;message0</title>
<path fill="none" stroke="#5cacee" stroke-width="2" d="M132.37,-531.19C152.67,-503.25 182.34,-469.01 217,-449.21 229.62,-442 243.49,-436.26 257.73,-431.68"/>
<polygon fill="#5cacee" stroke="#5cacee" stroke-width="2" points="259.07,-434.94 267.64,-428.7 257.06,-428.23 259.07,-434.94"/>
</g>
<!-- node8 -->
<g id="node3" class="node">
<title>node8</title>
<polygon fill="#a020f0" stroke="#a020f0" points="697.09,-531.21 697.09,-621.21 861.09,-621.21 861.09,-531.21 697.09,-531.21"/>
<text text-anchor="middle" x="779.09" y="-601.21" font-family="Helvetica,Arial,sans-serif" font-size="20.00">Start Time : 19.5</text>
<polyline fill="none" stroke="#a020f0" points="697.09,-591.21 861.09,-591.21 "/>
<text text-anchor="middle" x="779.09" y="-571.21" font-family="Helvetica,Arial,sans-serif" font-size="20.00">End Time : 28.5</text>
<polyline fill="none" stroke="#a020f0" points="697.09,-561.21 861.09,-561.21 "/>
<text text-anchor="middle" x="779.09" y="-541.21" font-family="Helvetica,Arial,sans-serif" font-size="20.00">Duration : 9</text>
</g>
<!-- node4&#45;&gt;node8 -->
<g id="edge2" class="edge">
<title>node4&#45;&gt;node8</title>
<path fill="none" stroke="black" d="M464.19,-576.21C526.47,-576.21 618.31,-576.21 686.58,-576.21"/>
<polygon fill="black" stroke="black" points="686.9,-579.71 696.9,-576.21 686.9,-572.71 686.9,-579.71"/>
</g>
<!-- contextMessage1 -->
<g id="node13" class="node">
<title>contextMessage1</title>
<ellipse fill="lightpink" stroke="lightpink" cx="779.09" cy="-425.21" rx="169" ry="21.43"/>
<text text-anchor="middle" x="779.09" y="-420.21" font-family="Helvetica,Arial,sans-serif" font-size="20.00">Dur : 13 | Band : 1.30769</text>
</g>
<!-- node4&#45;&gt;contextMessage1 -->
<g id="edge11" class="edge">
<title>node4&#45;&gt;contextMessage1</title>
<path fill="none" stroke="black" d="M464.1,-560.53C498.71,-550.18 539.66,-533.86 570.55,-509.21 593.1,-491.22 582.39,-470.97 606.55,-455.21 614.91,-449.76 623.96,-445.22 633.39,-441.44"/>
<polygon fill="black" stroke="black" points="634.77,-444.66 642.94,-437.91 632.34,-438.1 634.77,-444.66"/>
</g>
<!-- node3 -->
<g id="node4" class="node">
<title>node3</title>
<polygon fill="aqua" stroke="aqua" points="1078.16,-531.21 1078.16,-621.21 1242.16,-621.21 1242.16,-531.21 1078.16,-531.21"/>
<text text-anchor="middle" x="1160.16" y="-601.21" font-family="Helvetica,Arial,sans-serif" font-size="20.00">Start Time : 29.5</text>
<polyline fill="none" stroke="aqua" points="1078.16,-591.21 1242.16,-591.21 "/>
<text text-anchor="middle" x="1160.16" y="-571.21" font-family="Helvetica,Arial,sans-serif" font-size="20.00">End Time : 35.5</text>
<polyline fill="none" stroke="aqua" points="1078.16,-561.21 1242.16,-561.21 "/>
<text text-anchor="middle" x="1160.16" y="-541.21" font-family="Helvetica,Arial,sans-serif" font-size="20.00">Duration : 6</text>
</g>
<!-- node8&#45;&gt;node3 -->
<g id="edge3" class="edge">
<title>node8&#45;&gt;node3</title>
<path fill="none" stroke="black" d="M861.41,-576.21C921.99,-576.21 1004.76,-576.21 1067.66,-576.21"/>
<polygon fill="black" stroke="black" points="1067.97,-579.71 1077.97,-576.21 1067.97,-572.71 1067.97,-579.71"/>
</g>
<!-- node9 -->
<g id="node5" class="node">
<title>node9</title>
<polygon fill="#a020f0" stroke="#a020f0" points="1368.69,-531.21 1368.69,-621.21 1532.69,-621.21 1532.69,-531.21 1368.69,-531.21"/>
<text text-anchor="middle" x="1450.69" y="-601.21" font-family="Helvetica,Arial,sans-serif" font-size="20.00">Start Time : 39.5</text>
<polyline fill="none" stroke="#a020f0" points="1368.69,-591.21 1532.69,-591.21 "/>
<text text-anchor="middle" x="1450.69" y="-571.21" font-family="Helvetica,Arial,sans-serif" font-size="20.00">End Time : 48.5</text>
<polyline fill="none" stroke="#a020f0" points="1368.69,-561.21 1532.69,-561.21 "/>
<text text-anchor="middle" x="1450.69" y="-541.21" font-family="Helvetica,Arial,sans-serif" font-size="20.00">Duration : 9</text>
</g>
<!-- node3&#45;&gt;node9 -->
<g id="edge4" class="edge">
<title>node3&#45;&gt;node9</title>
<path fill="none" stroke="black" d="M1242.3,-576.21C1278.41,-576.21 1321.09,-576.21 1358.31,-576.21"/>
<polygon fill="black" stroke="black" points="1358.66,-579.71 1368.66,-576.21 1358.66,-572.71 1358.66,-579.71"/>
</g>
<!-- node10 -->
<g id="node6" class="node">
<title>node10</title>
<polygon fill="#ffe1ff" stroke="#ffe1ff" points="32.5,-206.21 32.5,-296.21 172.5,-296.21 172.5,-206.21 32.5,-206.21"/>
<text text-anchor="middle" x="102.5" y="-276.21" font-family="Helvetica,Arial,sans-serif" font-size="20.00">Start Time : 0</text>
<polyline fill="none" stroke="#ffe1ff" points="32.5,-266.21 172.5,-266.21 "/>
<text text-anchor="middle" x="102.5" y="-246.21" font-family="Helvetica,Arial,sans-serif" font-size="20.00">End Time : 10</text>
<polyline fill="none" stroke="#ffe1ff" points="32.5,-236.21 172.5,-236.21 "/>
<text text-anchor="middle" x="102.5" y="-216.21" font-family="Helvetica,Arial,sans-serif" font-size="20.00">Duration : 10</text>
</g>
<!-- node6 -->
<g id="node7" class="node">
<title>node6</title>
<polygon fill="#ff4500" stroke="#ff4500" points="320.28,-206.21 320.28,-296.21 467.28,-296.21 467.28,-206.21 320.28,-206.21"/>
<text text-anchor="middle" x="393.78" y="-276.21" font-family="Helvetica,Arial,sans-serif" font-size="20.00">Start Time : 10</text>
<polyline fill="none" stroke="#ff4500" points="320.28,-266.21 467.28,-266.21 "/>
<text text-anchor="middle" x="393.78" y="-246.21" font-family="Helvetica,Arial,sans-serif" font-size="20.00">End Time : 18</text>
<polyline fill="none" stroke="#ff4500" points="320.28,-236.21 467.28,-236.21 "/>
<text text-anchor="middle" x="393.78" y="-216.21" font-family="Helvetica,Arial,sans-serif" font-size="20.00">Duration : 8</text>
</g>
<!-- node10&#45;&gt;node6 -->
<g id="edge5" class="edge">
<title>node10&#45;&gt;node6</title>
<path fill="none" stroke="black" d="M172.79,-251.21C214.03,-251.21 266.6,-251.21 310.02,-251.21"/>
<polygon fill="black" stroke="black" points="310.27,-254.71 320.27,-251.21 310.27,-247.71 310.27,-254.71"/>
</g>
<!-- node1 -->
<g id="node8" class="node">
<title>node1</title>
<polygon fill="#5cacee" stroke="#5cacee" points="705.59,-206.21 705.59,-296.21 852.59,-296.21 852.59,-206.21 705.59,-206.21"/>
<text text-anchor="middle" x="779.09" y="-276.21" font-family="Helvetica,Arial,sans-serif" font-size="20.00">Start Time : 20</text>
<polyline fill="none" stroke="#5cacee" points="705.59,-266.21 852.59,-266.21 "/>
<text text-anchor="middle" x="779.09" y="-246.21" font-family="Helvetica,Arial,sans-serif" font-size="20.00">End Time : 25</text>
<polyline fill="none" stroke="#5cacee" points="705.59,-236.21 852.59,-236.21 "/>
<text text-anchor="middle" x="779.09" y="-216.21" font-family="Helvetica,Arial,sans-serif" font-size="20.00">Duration : 5</text>
</g>
<!-- node6&#45;&gt;node1 -->
<g id="edge6" class="edge">
<title>node6&#45;&gt;node1</title>
<path fill="none" stroke="black" d="M467.33,-251.21C532.25,-251.21 627.39,-251.21 695.28,-251.21"/>
<polygon fill="black" stroke="black" points="695.51,-254.71 705.51,-251.21 695.51,-247.71 695.51,-254.71"/>
</g>
<!-- message1 -->
<g id="node16" class="node">
<title>message1</title>
<ellipse fill="none" stroke="black" cx="393.78" cy="-690.21" rx="172.57" ry="21.43"/>
<text text-anchor="middle" x="393.78" y="-685.21" font-family="Helvetica,Arial,sans-serif" font-size="20.00">Dur : 1.5 | Band : 6.66667</text>
</g>
<!-- node6&#45;&gt;message1 -->
<g id="edge17" class="edge">
<title>node6&#45;&gt;message1</title>
<path fill="none" stroke="#ff4500" stroke-width="2" d="M320.06,-283.43C276.2,-306.94 224.32,-343.41 199,-393.21 186.16,-418.47 184.1,-624.11 199,-648.21 206.32,-660.05 216.15,-669.21 227.52,-676.23"/>
<polygon fill="#ff4500" stroke="#ff4500" stroke-width="2" points="226.06,-679.42 236.5,-681.2 229.44,-673.3 226.06,-679.42"/>
</g>
<!-- node5 -->
<g id="node9" class="node">
<title>node5</title>
<polygon fill="aquamarine" stroke="aquamarine" points="1086.66,-206.21 1086.66,-296.21 1233.66,-296.21 1233.66,-206.21 1086.66,-206.21"/>
<text text-anchor="middle" x="1160.16" y="-276.21" font-family="Helvetica,Arial,sans-serif" font-size="20.00">Start Time : 25</text>
<polyline fill="none" stroke="aquamarine" points="1086.66,-266.21 1233.66,-266.21 "/>
<text text-anchor="middle" x="1160.16" y="-246.21" font-family="Helvetica,Arial,sans-serif" font-size="20.00">End Time : 32</text>
<polyline fill="none" stroke="aquamarine" points="1086.66,-236.21 1233.66,-236.21 "/>
<text text-anchor="middle" x="1160.16" y="-216.21" font-family="Helvetica,Arial,sans-serif" font-size="20.00">Duration : 7</text>
</g>
<!-- node1&#45;&gt;node5 -->
<g id="edge7" class="edge">
<title>node1&#45;&gt;node5</title>
<path fill="none" stroke="black" d="M852.73,-251.21C916.63,-251.21 1009.61,-251.21 1076.37,-251.21"/>
<polygon fill="black" stroke="black" points="1076.44,-254.71 1086.44,-251.21 1076.44,-247.71 1076.44,-254.71"/>
</g>
<!-- message2 -->
<g id="node17" class="node">
<title>message2</title>
<ellipse fill="none" stroke="black" cx="779.09" cy="-485.21" rx="172.57" ry="21.43"/>
<text text-anchor="middle" x="779.09" y="-480.21" font-family="Helvetica,Arial,sans-serif" font-size="20.00">Dur : 4.5 | Band : 2.22222</text>
</g>
<!-- node1&#45;&gt;message2 -->
<g id="edge19" class="edge">
<title>node1&#45;&gt;message2</title>
<path fill="none" stroke="#5cacee" stroke-width="2" d="M705.3,-266.74C663.2,-279.8 613.9,-303.2 588.55,-344.21 564.72,-382.78 564.72,-407.65 588.55,-446.21 594.94,-456.54 603.29,-464.74 612.93,-471.2"/>
<polygon fill="#5cacee" stroke="#5cacee" stroke-width="2" points="611.33,-474.32 621.71,-476.44 614.92,-468.31 611.33,-474.32"/>
</g>
<!-- message3 -->
<g id="node18" class="node">
<title>message3</title>
<ellipse fill="none" stroke="black" cx="1160.16" cy="-690.21" rx="160.53" ry="21.43"/>
<text text-anchor="middle" x="1160.16" y="-685.21" font-family="Helvetica,Arial,sans-serif" font-size="20.00">Dur : 6 | Band : 3.33333</text>
</g>
<!-- node5&#45;&gt;message3 -->
<g id="edge21" class="edge">
<title>node5&#45;&gt;message3</title>
<path fill="none" stroke="aquamarine" stroke-width="2" d="M1115.88,-296.27C1069.1,-347.35 998.21,-435.49 969.62,-527.21 953.62,-578.56 941.35,-602.47 969.62,-648.21 977.58,-661.09 988.56,-670.75 1001.28,-677.93"/>
<polygon fill="aquamarine" stroke="aquamarine" stroke-width="2" points="999.84,-681.12 1010.34,-682.51 1002.99,-674.87 999.84,-681.12"/>
</g>
<!-- node2 -->
<g id="node10" class="node">
<title>node2</title>
<polygon fill="aqua" stroke="aqua" points="24,-67.21 24,-157.21 181,-157.21 181,-67.21 24,-67.21"/>
<text text-anchor="middle" x="102.5" y="-137.21" font-family="Helvetica,Arial,sans-serif" font-size="20.00">Start Time : 9.5</text>
<polyline fill="none" stroke="aqua" points="24,-127.21 181,-127.21 "/>
<text text-anchor="middle" x="102.5" y="-107.21" font-family="Helvetica,Arial,sans-serif" font-size="20.00">End Time : 15.5</text>
<polyline fill="none" stroke="aqua" points="24,-97.21 181,-97.21 "/>
<text text-anchor="middle" x="102.5" y="-77.21" font-family="Helvetica,Arial,sans-serif" font-size="20.00">Duration : 6</text>
</g>
<!-- node7 -->
<g id="node11" class="node">
<title>node7</title>
<polygon fill="#ff4500" stroke="#ff4500" points="320.28,-67.21 320.28,-157.21 467.28,-157.21 467.28,-67.21 320.28,-67.21"/>
<text text-anchor="middle" x="393.78" y="-137.21" font-family="Helvetica,Arial,sans-serif" font-size="20.00">Start Time : 30</text>
<polyline fill="none" stroke="#ff4500" points="320.28,-127.21 467.28,-127.21 "/>
<text text-anchor="middle" x="393.78" y="-107.21" font-family="Helvetica,Arial,sans-serif" font-size="20.00">End Time : 38</text>
<polyline fill="none" stroke="#ff4500" points="320.28,-97.21 467.28,-97.21 "/>
<text text-anchor="middle" x="393.78" y="-77.21" font-family="Helvetica,Arial,sans-serif" font-size="20.00">Duration : 8</text>
</g>
<!-- node2&#45;&gt;node7 -->
<g id="edge8" class="edge">
<title>node2&#45;&gt;node7</title>
<path fill="none" stroke="black" d="M181.02,-112.21C220.83,-112.21 269.35,-112.21 309.89,-112.21"/>
<polygon fill="black" stroke="black" points="310.02,-115.71 320.02,-112.21 310.02,-108.71 310.02,-115.71"/>
</g>
<!-- contextMessage2 -->
<g id="node14" class="node">
<title>contextMessage2</title>
<ellipse fill="lightpink" stroke="lightpink" cx="779.09" cy="-365.21" rx="169" ry="21.43"/>
<text text-anchor="middle" x="779.09" y="-360.21" font-family="Helvetica,Arial,sans-serif" font-size="20.00">Dur : 14 | Band : 1.07143</text>
</g>
<!-- node2&#45;&gt;contextMessage2 -->
<g id="edge13" class="edge">
<title>node2&#45;&gt;contextMessage2</title>
<path fill="none" stroke="black" d="M154.29,-157.31C164.3,-168.23 173.89,-180.46 181,-193.21 212.06,-248.96 167.7,-291.69 217,-332.21 276.58,-381.19 476.53,-382.26 620.77,-375.92"/>
<polygon fill="black" stroke="black" points="621.22,-379.4 631.05,-375.45 620.91,-372.41 621.22,-379.4"/>
</g>
<!-- message4 -->
<g id="node19" class="node">
<title>message4</title>
<ellipse fill="none" stroke="black" cx="1160.16" cy="-21.21" rx="172.57" ry="21.43"/>
<text text-anchor="middle" x="1160.16" y="-16.21" font-family="Helvetica,Arial,sans-serif" font-size="20.00">Dur : 1.5 | Band : 6.66667</text>
</g>
<!-- node7&#45;&gt;message4 -->
<g id="edge23" class="edge">
<title>node7&#45;&gt;message4</title>
<path fill="none" stroke="#ff4500" stroke-width="2" d="M467.38,-103.57C595.41,-88.33 863.09,-56.46 1025.37,-37.14"/>
<polygon fill="#ff4500" stroke="#ff4500" stroke-width="2" points="1025.91,-40.6 1035.42,-35.94 1025.08,-33.65 1025.91,-40.6"/>
</g>
<!-- contextMessage0&#45;&gt;node1 -->
<g id="edge10" class="edge">
<title>contextMessage0&#45;&gt;node1</title>
<path fill="none" stroke="black" d="M534.36,-466.16C547.56,-460.74 559.95,-453.59 570.55,-444.21 608.77,-410.41 573.02,-373.66 606.55,-335.21 630.16,-308.15 664.49,-288.95 696.26,-275.8"/>
<polygon fill="black" stroke="black" points="697.58,-279.04 705.57,-272.09 694.99,-272.54 697.58,-279.04"/>
</g>
<!-- contextMessage1&#45;&gt;node5 -->
<g id="edge12" class="edge">
<title>contextMessage1&#45;&gt;node5</title>
<path fill="none" stroke="black" d="M902.37,-410.57C919.25,-406.61 936.1,-401.59 951.62,-395.21 1005.96,-372.88 1060.27,-334.49 1099.69,-302.96"/>
<polygon fill="black" stroke="black" points="1102.29,-305.35 1107.87,-296.34 1097.89,-299.91 1102.29,-305.35"/>
</g>
<!-- contextMessage2&#45;&gt;node3 -->
<g id="edge14" class="edge">
<title>contextMessage2&#45;&gt;node3</title>
<path fill="none" stroke="black" d="M906.69,-379.22C922.23,-383.29 937.57,-388.51 951.62,-395.21 1015.6,-425.74 1075.08,-481.62 1113.82,-523.25"/>
<polygon fill="black" stroke="black" points="1111.46,-525.86 1120.81,-530.85 1116.62,-521.12 1111.46,-525.86"/>
</g>
<!-- message0&#45;&gt;node2 -->
<g id="edge16" class="edge">
<title>message0&#45;&gt;node2</title>
<path fill="none" stroke="aqua" stroke-width="2" d="M265.25,-399.88C247.17,-392.97 230.25,-383.13 217,-369.21 161.94,-311.39 218.05,-263.94 181,-193.21 175.83,-183.35 169.1,-173.84 161.76,-165.03"/>
<polygon fill="aqua" stroke="aqua" stroke-width="2" points="164.39,-162.72 155.18,-157.48 159.11,-167.32 164.39,-162.72"/>
</g>
<!-- message1&#45;&gt;node8 -->
<g id="edge18" class="edge">
<title>message1&#45;&gt;node8</title>
<path fill="none" stroke="#a020f0" stroke-width="2" d="M501.02,-673.57C524.13,-669.04 548.31,-663.58 570.55,-657.21 609.64,-646.02 651.61,-630.37 687.51,-615.8"/>
<polygon fill="#a020f0" stroke="#a020f0" stroke-width="2" points="689.06,-618.95 696.99,-611.92 686.41,-612.47 689.06,-618.95"/>
</g>
<!-- message2&#45;&gt;node3 -->
<g id="edge20" class="edge">
<title>message2&#45;&gt;node3</title>
<path fill="none" stroke="aqua" stroke-width="2" d="M878.35,-502.67C902.4,-507.34 928.01,-512.65 951.62,-518.21 989.9,-527.23 1031.73,-538.62 1067.75,-548.91"/>
<polygon fill="aqua" stroke="aqua" stroke-width="2" points="1067.17,-552.39 1077.75,-551.79 1069.1,-545.66 1067.17,-552.39"/>
</g>
<!-- message3&#45;&gt;node9 -->
<g id="edge22" class="edge">
<title>message3&#45;&gt;node9</title>
<path fill="none" stroke="#a020f0" stroke-width="2" d="M1274.78,-675.27C1294.51,-670.74 1314.52,-664.85 1332.69,-657.21 1351.12,-649.47 1369.58,-638.53 1386.22,-627.19"/>
<polygon fill="#a020f0" stroke="#a020f0" stroke-width="2" points="1388.55,-629.83 1394.74,-621.24 1384.54,-624.1 1388.55,-629.83"/>
</g>
<!-- message4&#45;&gt;node9 -->
<g id="edge24" class="edge">
<title>message4&#45;&gt;node9</title>
<path fill="none" stroke="#a020f0" stroke-width="2" d="M1189.43,-42.21C1227.37,-71.81 1294.4,-129.38 1332.69,-193.21 1396.43,-299.49 1428.13,-443.45 1441.51,-521.09"/>
<polygon fill="#a020f0" stroke="#a020f0" stroke-width="2" points="1438.09,-521.86 1443.2,-531.14 1444.99,-520.7 1438.09,-521.86"/>
</g>
</g>
</svg>
